# This file uses centimeters as units for non-parametric coordinates.

mtllib table OBJ.mtl
g default
v -3.140370 -0.021901 3.158348
v -2.835426 -0.021901 3.158348
v -3.140370 4.272375 3.158348
v -2.835426 4.272375 3.158348
v -3.140370 4.272375 2.853405
v -2.835426 4.272375 2.853405
v -3.140370 -0.021901 2.853405
v -2.835426 -0.021901 2.853405
vt 0.376385 0.001820
vt 0.584608 0.001820
vt 0.584608 0.911754
vt 0.376385 0.911754
vt 0.590771 0.001820
vt 0.798994 0.001820
vt 0.798994 0.911754
vt 0.590771 0.911754
vt 0.805155 0.001820
vt 0.985866 0.001820
vt 0.985866 0.210043
vt 0.805155 0.210043
vt 0.817298 0.214034
vt 0.998008 0.214034
vt 0.998008 0.422257
vt 0.817298 0.422257
vt 0.001992 0.001820
vt 0.182702 0.001820
vt 0.182702 0.911754
vt 0.001992 0.911754
vt 0.189286 0.001820
vt 0.369997 0.001820
vt 0.369997 0.911753
vt 0.189286 0.911753
vn 0.000000 0.000000 1.000000
vn 0.000000 0.000000 1.000000
vn 0.000000 0.000000 1.000000
vn 0.000000 0.000000 1.000000
vn 0.000000 1.000000 0.000000
vn 0.000000 1.000000 0.000000
vn 0.000000 1.000000 0.000000
vn 0.000000 1.000000 0.000000
vn 0.000000 0.000000 -1.000000
vn 0.000000 0.000000 -1.000000
vn 0.000000 0.000000 -1.000000
vn 0.000000 0.000000 -1.000000
vn 0.000000 -1.000000 0.000000
vn 0.000000 -1.000000 0.000000
vn 0.000000 -1.000000 0.000000
vn 0.000000 -1.000000 0.000000
vn 1.000000 0.000000 0.000000
vn 1.000000 0.000000 0.000000
vn 1.000000 0.000000 0.000000
vn 1.000000 0.000000 0.000000
vn -1.000000 0.000000 0.000000
vn -1.000000 0.000000 0.000000
vn -1.000000 0.000000 0.000000
vn -1.000000 0.000000 0.000000
s off
g pCube1
usemtl initialShadingGroup
f 1/17/1 2/18/2 4/19/3 3/20/4
f 3/9/5 4/10/6 6/11/7 5/12/8
f 5/21/9 6/22/10 8/23/11 7/24/12
f 7/13/13 8/14/14 2/15/15 1/16/16
f 2/1/17 8/2/18 6/3/19 4/4/20
f 7/5/21 1/6/22 3/7/23 5/8/24
g default
v 2.837830 -0.021901 3.158348
v 3.142774 -0.021901 3.158348
v 2.837830 4.272375 3.158348
v 3.142774 4.272375 3.158348
v 2.837830 4.272375 2.853405
v 3.142774 4.272375 2.853405
v 2.837830 -0.021901 2.853405
v 3.142774 -0.021901 2.853405
vt 0.271845 0.001992
vt 0.315112 0.001992
vt 0.315112 0.998008
vt 0.271845 0.998008
vt 0.321236 0.001992
vt 0.364504 0.001992
vt 0.364504 0.998008
vt 0.321236 0.998008
vt 0.370627 0.131031
vt 0.370627 0.001992
vt 0.413895 0.001992
vt 0.413895 0.131031
vt 0.420019 0.131031
vt 0.420019 0.001992
vt 0.463286 0.001992
vt 0.463286 0.131031
vt 0.000925 0.001992
vt 0.129963 0.001992
vt 0.129963 0.998008
vt 0.000925 0.998008
vt 0.136476 0.001992
vt 0.265515 0.001992
vt 0.265515 0.998008
vt 0.136476 0.998008
vn 0.000000 0.000000 1.000000
vn 0.000000 0.000000 1.000000
vn 0.000000 0.000000 1.000000
vn 0.000000 0.000000 1.000000
vn 0.000000 1.000000 0.000000
vn 0.000000 1.000000 0.000000
vn 0.000000 1.000000 0.000000
vn 0.000000 1.000000 0.000000
vn 0.000000 0.000000 -1.000000
vn 0.000000 0.000000 -1.000000
vn 0.000000 0.000000 -1.000000
vn 0.000000 0.000000 -1.000000
vn 0.000000 -1.000000 0.000000
vn 0.000000 -1.000000 0.000000
vn 0.000000 -1.000000 0.000000
vn 0.000000 -1.000000 0.000000
vn 1.000000 0.000000 0.000000
vn 1.000000 0.000000 0.000000
vn 1.000000 0.000000 0.000000
vn 1.000000 0.000000 0.000000
vn -1.000000 0.000000 0.000000
vn -1.000000 0.000000 0.000000
vn -1.000000 0.000000 0.000000
vn -1.000000 0.000000 0.000000
s off
g pCube2
usemtl initialShadingGroup
f 9/41/25 10/42/26 12/43/27 11/44/28
f 11/33/29 12/34/30 14/35/31 13/36/32
f 13/45/33 14/46/34 16/47/35 15/48/36
f 15/37/37 16/38/38 10/39/39 9/40/40
f 10/25/41 16/26/42 14/27/43 12/28/44
f 15/29/45 9/30/46 11/31/47 13/32/48
g default
v 2.837830 -0.021901 -2.853405
v 3.142774 -0.021901 -2.853405
v 2.837830 4.272375 -2.853405
v 3.142774 4.272375 -2.853405
v 2.837830 4.272375 -3.158348
v 3.142774 4.272375 -3.158348
v 2.837830 -0.021901 -3.158348
v 3.142774 -0.021901 -3.158348
vt 0.400875 0.001992
vt 0.570586 0.001992
vt 0.570586 0.801440
vt 0.400875 0.801440
vt 0.577587 0.001992
vt 0.747298 0.001992
vt 0.747298 0.801440
vt 0.577587 0.801440
vt 0.726221 0.998008
vt 0.726221 0.805023
vt 0.895932 0.805023
vt 0.895932 0.998008
vt 0.551003 0.998008
vt 0.551003 0.805023
vt 0.720713 0.805023
vt 0.720713 0.998008
vt 0.001788 0.001992
vt 0.194773 0.001992
vt 0.194773 0.801440
vt 0.001788 0.801440
vt 0.201419 0.001992
vt 0.394404 0.001992
vt 0.394404 0.801440
vt 0.201419 0.801440
vn 0.000000 0.000000 1.000000
vn 0.000000 0.000000 1.000000
vn 0.000000 0.000000 1.000000
vn 0.000000 0.000000 1.000000
vn 0.000000 1.000000 0.000000
vn 0.000000 1.000000 0.000000
vn 0.000000 1.000000 0.000000
vn 0.000000 1.000000 0.000000
vn 0.000000 0.000000 -1.000000
vn 0.000000 0.000000 -1.000000
vn 0.000000 0.000000 -1.000000
vn 0.000000 0.000000 -1.000000
vn 0.000000 -1.000000 0.000000
vn 0.000000 -1.000000 0.000000
vn 0.000000 -1.000000 0.000000
vn 0.000000 -1.000000 0.000000
vn 1.000000 0.000000 0.000000
vn 1.000000 0.000000 0.000000
vn 1.000000 0.000000 0.000000
vn 1.000000 0.000000 0.000000
vn -1.000000 0.000000 0.000000
vn -1.000000 0.000000 0.000000
vn -1.000000 0.000000 0.000000
vn -1.000000 0.000000 0.000000
s off
g pCube3
usemtl initialShadingGroup
f 17/65/49 18/66/50 20/67/51 19/68/52
f 19/57/53 20/58/54 22/59/55 21/60/56
f 21/69/57 22/70/58 24/71/59 23/72/60
f 23/61/61 24/62/62 18/63/63 17/64/64
f 18/49/65 24/50/66 22/51/67 20/52/68
f 23/53/69 17/54/70 19/55/71 21/56/72
g default
v -3.124795 -0.021901 -2.853405
v -2.819851 -0.021901 -2.853405
v -3.124795 4.272375 -2.853405
v -2.819851 4.272375 -2.853405
v -3.124795 4.272375 -3.158348
v -2.819851 4.272375 -3.158348
v -3.124795 -0.021901 -3.158348
v -2.819851 -0.021901 -3.158348
vt 0.286954 0.001992
vt 0.523608 0.001992
vt 0.523608 0.757707
vt 0.286954 0.757707
vt 0.530948 0.001992
vt 0.767601 0.001992
vt 0.767601 0.757707
vt 0.530948 0.757707
vt 0.775308 0.001992
vt 0.911991 0.001992
vt 0.911991 0.238646
vt 0.775308 0.238646
vt 0.633019 0.761355
vt 0.769702 0.761355
vt 0.769702 0.998008
vt 0.633019 0.998008
vt 0.001820 0.001992
vt 0.138503 0.001992
vt 0.138503 0.757707
vt 0.001820 0.757707
vt 0.144476 0.001992
vt 0.281159 0.001992
vt 0.281159 0.757707
vt 0.144476 0.757707
vn 0.000000 0.000000 1.000000
vn 0.000000 0.000000 1.000000
vn 0.000000 0.000000 1.000000
vn 0.000000 0.000000 1.000000
vn 0.000000 1.000000 0.000000
vn 0.000000 1.000000 0.000000
vn 0.000000 1.000000 0.000000
vn 0.000000 1.000000 0.000000
vn 0.000000 0.000000 -1.000000
vn 0.000000 0.000000 -1.000000
vn 0.000000 0.000000 -1.000000
vn 0.000000 0.000000 -1.000000
vn 0.000000 -1.000000 0.000000
vn 0.000000 -1.000000 0.000000
vn 0.000000 -1.000000 0.000000
vn 0.000000 -1.000000 0.000000
vn 1.000000 0.000000 0.000000
vn 1.000000 0.000000 0.000000
vn 1.000000 0.000000 0.000000
vn 1.000000 0.000000 0.000000
vn -1.000000 0.000000 0.000000
vn -1.000000 0.000000 0.000000
vn -1.000000 0.000000 0.000000
vn -1.000000 0.000000 0.000000
s off
g pCube4
usemtl initialShadingGroup
f 25/89/73 26/90/74 28/91/75 27/92/76
f 27/81/77 28/82/78 30/83/79 29/84/80
f 29/93/81 30/94/82 32/95/83 31/96/84
f 31/85/85 32/86/86 26/87/87 25/88/88
f 26/73/89 32/74/90 30/75/91 28/76/92
f 31/77/93 25/78/94 27/79/95 29/80/96
g default
v -3.652295 4.272422 3.400000
v 3.602821 4.272422 3.400000
v -3.652295 4.483533 3.400000
v 3.602821 4.483533 3.400000
v -3.652295 4.483533 -3.400000
v 3.602821 4.483533 -3.400000
v -3.652295 4.272422 -3.400000
v 3.602821 4.272422 -3.400000
vt 0.887011 0.548509
vt 0.887011 0.001972
vt 0.927498 0.001972
vt 0.927498 0.548509
vt 0.933786 0.548509
vt 0.933786 0.001972
vt 0.974273 0.001972
vt 0.974273 0.548509
vt 0.001992 0.046332
vt 0.437220 0.046332
vt 0.437220 0.592870
vt 0.001992 0.592870
vt 0.444599 0.001972
vt 0.879827 0.001972
vt 0.879827 0.548509
vt 0.444599 0.548509
vt 0.957521 0.987729
vt 0.957521 0.552501
vt 0.998008 0.552501
vt 0.998008 0.987729
vt 0.910899 0.987729
vt 0.910899 0.552501
vt 0.951386 0.552501
vt 0.951386 0.987729
vn 0.000000 0.000000 1.000000
vn 0.000000 0.000000 1.000000
vn 0.000000 0.000000 1.000000
vn 0.000000 0.000000 1.000000
vn 0.000000 1.000000 0.000000
vn 0.000000 1.000000 0.000000
vn 0.000000 1.000000 0.000000
vn 0.000000 1.000000 0.000000
vn 0.000000 0.000000 -1.000000
vn 0.000000 0.000000 -1.000000
vn 0.000000 0.000000 -1.000000
vn 0.000000 0.000000 -1.000000
vn 0.000000 -1.000000 0.000000
vn 0.000000 -1.000000 0.000000
vn 0.000000 -1.000000 0.000000
vn 0.000000 -1.000000 0.000000
vn 1.000000 0.000000 0.000000
vn 1.000000 0.000000 0.000000
vn 1.000000 0.000000 0.000000
vn 1.000000 0.000000 0.000000
vn -1.000000 0.000000 0.000000
vn -1.000000 0.000000 0.000000
vn -1.000000 0.000000 0.000000
vn -1.000000 0.000000 0.000000
s off
g pCube5
usemtl initialShadingGroup
f 33/113/97 34/114/98 36/115/99 35/116/100
f 35/105/101 36/106/102 38/107/103 37/108/104
f 37/117/105 38/118/106 40/119/107 39/120/108
f 39/109/109 40/110/110 34/111/111 33/112/112
f 34/97/113 40/98/114 38/99/115 36/100/116
f 39/101/117 33/102/118 35/103/119 37/104/120
g default
v -3.440597 4.432847 0.052201
v 3.298849 4.432847 0.052201
v -3.440597 5.984207 0.052201
v 3.298849 5.984207 0.052201
v -3.440597 5.984207 -0.052201
v 3.298849 5.984207 -0.052201
v -3.440597 4.432847 -0.052201
v 3.298849 4.432847 -0.052201
vt 0.375000 0.000000
vt 0.625000 0.000000
vt 0.375000 0.250000
vt 0.625000 0.250000
vt 0.375000 0.500000
vt 0.625000 0.500000
vt 0.375000 0.750000
vt 0.625000 0.750000
vt 0.375000 1.000000
vt 0.625000 1.000000
vt 0.875000 0.000000
vt 0.875000 0.250000
vt 0.125000 0.000000
vt 0.125000 0.250000
vn 0.000000 0.000000 1.000000
vn 0.000000 0.000000 1.000000
vn 0.000000 0.000000 1.000000
vn 0.000000 0.000000 1.000000
vn 0.000000 1.000000 0.000000
vn 0.000000 1.000000 0.000000
vn 0.000000 1.000000 0.000000
vn 0.000000 1.000000 0.000000
vn 0.000000 0.000000 -1.000000
vn 0.000000 0.000000 -1.000000
vn 0.000000 0.000000 -1.000000
vn 0.000000 0.000000 -1.000000
vn 0.000000 -1.000000 0.000000
vn 0.000000 -1.000000 0.000000
vn 0.000000 -1.000000 0.000000
vn 0.000000 -1.000000 0.000000
vn 1.000000 0.000000 0.000000
vn 1.000000 0.000000 0.000000
vn 1.000000 0.000000 0.000000
vn 1.000000 0.000000 0.000000
vn -1.000000 0.000000 0.000000
vn -1.000000 0.000000 0.000000
vn -1.000000 0.000000 0.000000
vn -1.000000 0.000000 0.000000
s off
g pCube6
usemtl initialShadingGroup
f 41/121/121 42/122/122 44/124/123 43/123/124
f 43/123/125 44/124/126 46/126/127 45/125/128
f 45/125/129 46/126/130 48/128/131 47/127/132
f 47/127/133 48/128/134 42/130/135 41/129/136
f 42/122/137 48/131/138 46/132/139 44/124/140
f 47/133/141 41/121/142 43/123/143 45/134/144
